<svg width="6" height="12" viewBox="0 0 6 12" fill="none" xmlns="http://www.w3.org/2000/svg">
<path d="M5.99999 5.99849C6.00045 6.07747 5.98531 6.15576 5.95545 6.22888C5.92558 6.302 5.88157 6.3685 5.82596 6.42457L1.02503 11.2255C0.969273 11.2813 0.903082 11.3255 0.830232 11.3557C0.757382 11.3858 0.679302 11.4014 0.60045 11.4014C0.521598 11.4014 0.443518 11.3858 0.370668 11.3557C0.297818 11.3255 0.231622 11.2813 0.175866 11.2255C0.120109 11.1697 0.0758828 11.1035 0.0457073 11.0307C0.0155319 10.9578 -2.52923e-08 10.8798 -2.62465e-08 10.8009C-2.72007e-08 10.7221 0.0155319 10.644 0.0457073 10.5711C0.0758827 10.4983 0.120109 10.4321 0.175865 10.3763L4.55071 5.99849L0.175865 1.62365C0.120108 1.56789 0.0758823 1.5017 0.0457069 1.42885C0.0155315 1.356 -4.40017e-07 1.27792 -4.45957e-07 1.19907C-4.51896e-07 1.12022 0.0155315 1.04213 0.0457069 0.969285C0.0758823 0.896435 0.120108 0.830241 0.175865 0.774485C0.231622 0.718728 0.297817 0.674498 0.370667 0.644321C0.443517 0.614146 0.521597 0.598618 0.600449 0.598618C0.679302 0.598618 0.757382 0.614146 0.830232 0.644321C0.903081 0.674498 0.969272 0.718728 1.02503 0.774485L5.82596 5.57541C5.93755 5.68793 6.00012 5.84002 5.99999 5.99849Z" fill="black"/>
</svg>
