<svg width="14" height="14" viewBox="0 0 14 14" fill="none" xmlns="http://www.w3.org/2000/svg">
<path d="M7 13.03L6.81 12.95C6.53 12.84 3.35064e-10 10.09 3.35064e-10 4.89999C-1.35206e-05 3.86645 0.409191 2.87495 1.13814 2.14225C1.86708 1.40956 2.85647 0.995278 3.89 0.989991C4.49306 0.989602 5.08795 1.12943 5.62769 1.39843C6.16743 1.66743 6.63723 2.05824 7 2.53999C7.36383 2.05938 7.83385 1.66941 8.37335 1.40052C8.91285 1.13164 9.50721 0.991141 10.11 0.989991C11.1435 0.995278 12.1329 1.40956 12.8619 2.14225C13.5908 2.87495 14 3.86645 14 4.89999C14 10.09 7.47 12.84 7.19 12.95L7 13.03Z" fill="#EC1C82"/>
</svg>
