<svg width="14" height="13" viewBox="0 0 14 13" fill="none" xmlns="http://www.w3.org/2000/svg">
<path d="M7 12.21L6.81 12.13C6.53 12.02 3.35064e-10 9.26998 3.35064e-10 4.12998C-1.35206e-05 3.09644 0.409191 2.10493 1.13814 1.37223C1.86708 0.639539 2.85647 0.225261 3.89 0.219974C4.49418 0.219188 5.09016 0.359872 5.6302 0.630763C6.17025 0.901655 6.63937 1.29523 7 1.77997C7.36172 1.29638 7.83106 0.90366 8.37086 0.632892C8.91067 0.362124 9.5061 0.22075 10.11 0.219974C11.1435 0.225261 12.1329 0.639539 12.8619 1.37223C13.5908 2.10493 14 3.09644 14 4.12998C14 9.31998 7.47 12.07 7.19 12.13L7 12.21ZM3.89 1.20997C3.12169 1.21525 2.38664 1.52417 1.84523 2.06933C1.30382 2.61449 0.999982 3.35165 1 4.11998C1 8.18998 6 10.68 7 11.12C8 10.64 13 8.11998 13 4.11998C13 3.35165 12.6962 2.61449 12.1548 2.06933C11.6134 1.52417 10.8783 1.21525 10.11 1.20997C9.54679 1.21023 8.99593 1.37506 8.52513 1.68418C8.05433 1.99331 7.68411 2.43327 7.45999 2.94998L7 3.94998L6.53999 2.94998C6.32195 2.42579 5.95436 1.97743 5.48308 1.66088C5.0118 1.34432 4.45771 1.17358 3.89 1.16997V1.20997Z" fill="#EC1C82"/>
</svg>
