<svg width="24" height="24" fill="none" xmlns="http://www.w3.org/2000/svg"><path d="M7.364.754a8.4 8.4 0 0 0-2.747.536c-.756.285-1.44.73-2.008 1.306a5.623 5.623 0 0 0-1.298 2.007 8.302 8.302 0 0 0-.52 2.755C.738 8.566.723 8.95.73 12.022c.007 3.072 0 3.457.075 4.664.02.94.2 1.87.535 2.747.285.756.73 1.441 1.306 2.008a5.555 5.555 0 0 0 2.008 1.298c.88.328 1.808.504 2.747.52 1.207.054 1.592.069 4.671.061 3.08-.007 3.457 0 4.665-.075a8.203 8.203 0 0 0 2.747-.536 5.487 5.487 0 0 0 2-1.306 5.576 5.576 0 0 0 1.306-2.007 8.3 8.3 0 0 0 .52-2.748c.053-1.207.06-1.592.06-4.671 0-3.08 0-3.457-.082-4.664a8.224 8.224 0 0 0-.529-2.747 5.585 5.585 0 0 0-1.305-2 5.54 5.54 0 0 0-2.008-1.306 8.302 8.302 0 0 0-2.755-.52C15.485.685 15.1.678 12.028.678c-3.071 0-3.456 0-4.664.075Zm.128 20.468a6.316 6.316 0 0 1-2.105-.385c-.49-.18-.935-.47-1.298-.845a3.502 3.502 0 0 1-.853-1.298 6.415 6.415 0 0 1-.393-2.106c-.052-1.192-.068-1.51-.075-4.573-.008-3.065 0-3.374.06-4.574a6.256 6.256 0 0 1 .385-2.098c.18-.493.469-.94.845-1.306.365-.37.809-.651 1.299-.822.67-.255 1.38-.39 2.098-.4 1.2-.053 1.554-.068 4.573-.068 3.02 0 3.381 0 4.581.052a6.46 6.46 0 0 1 2.098.385c.492.183.938.472 1.306.846.376.364.665.807.845 1.298a6.04 6.04 0 0 1 .393 2.105c.06 1.193.075 1.51.075 4.574s0 3.381-.053 4.574a6.518 6.518 0 0 1-.384 2.105c-.181.49-.47.934-.846 1.298a3.57 3.57 0 0 1-1.298.853 6.47 6.47 0 0 1-2.105.393c-1.193.052-1.51.068-4.574.075-3.064.008-3.381 0-4.574-.06m9.23-15.276a1.358 1.358 0 1 0 2.717 0 1.358 1.358 0 0 0-2.716 0ZM6.24 12.007a5.804 5.804 0 0 0 5.818 5.796 5.813 5.813 0 0 0 5.358-8.044A5.812 5.812 0 0 0 6.24 12.007Zm2.037 0a3.774 3.774 0 1 1 7.548 0 3.774 3.774 0 0 1-7.548 0Z" fill="#fff"/></svg>