<?xml version="1.0" encoding="utf-8"?><svg viewBox="0 0 163 28" xmlns="http://www.w3.org/2000/svg" xmlns:xlink="http://www.w3.org/1999/xlink"><style>:root>svg{display:none}:root>svg:target{display:block}</style><svg viewBox="0 0 163 28" id="healthlife_logo" xmlns="http://www.w3.org/2000/svg"><path d="M61.325 24.834c-.585 0-.798-.546-.798-1.078v-8.717c0-3.3-2.076-6.721-8.624-6.721-6.255 0-8.637 3.154-8.637 5.722-.007.12-.007.24 0 .36a2.66 2.66 0 002.781 2.568 2.782 2.782 0 002.782-2.422c-.12-.687-.2-1.38-.24-2.076a2.662 2.662 0 012.422-2.582c1.038 0 1.97.612 1.97 2.37v3.393c-7.852 2.315-10.993 4.684-10.993 7.905 0 2.901 1.903 4.432 5.324 4.432 3.872 0 5.909-1.97 6.428-3.753.612 1.93 1.45 3.753 4.418 3.753a4.778 4.778 0 005.044-3.913l-.812-.173c-.2.639-.546.932-1.065.932zm-8.264-1.61a.503.503 0 010 .132 1.663 1.663 0 01-1.824 1.504c-1.21 0-1.716-.745-1.716-2.382a6.016 6.016 0 013.54-5.736v6.481zM33.417 8.317c-5.749 0-9.661 4.179-9.661 10.34 0 5.15 3.806 9.316 10.047 9.316a10.034 10.034 0 007.453-2.661v-1.331a6.428 6.428 0 01-3.926 1.33c-2.874 0-6.015-2.568-6.468-8.224h10.394c0-4.884-2.142-8.77-7.839-8.77zm-.346 7.692c-1.676 0-1.863-.479-1.863-1.876 0-1.078.187-3.727 1.864-3.727 1.676 0 1.863 2.662 1.863 3.727 0 1.384-.2 1.863-1.864 1.863v.013zm39.06 9.156a5.138 5.138 0 001.066 2.023h-8.624V6.07L62.27 4.325A73.822 73.822 0 0072.132 0v25.166zm-50.012 0a5.63 5.63 0 00.851 2.037h-8.33V13.894a2.17 2.17 0 00-2.077-2.25h-.12a2.502 2.502 0 00-2.515 2.29v13.308H2.422V6.07L0 4.325A75.419 75.419 0 009.928 0v11.086a8.757 8.757 0 016.561-2.768c3.993 0 5.63 2.662 5.63 5.722v11.126zm110.593 2.023h-8.797V13.881l-2.422-1.704a77.45 77.45 0 009.941-4.338v17.3c0 .36.439 1.039 1.291 2.064l-.013-.014zm-8.877-23.13a3.842 3.842 0 011.009-2.758 3.832 3.832 0 015.418-.222 3.844 3.844 0 011.239 2.66v.32a3.9 3.9 0 01-3.806 3.993 3.897 3.897 0 01-3.86-3.993zm-4.405 21.107a5.324 5.324 0 001.065 2.023h-8.624V6.07l-2.303-1.744A74.51 74.51 0 00119.43 0v25.166zm43.106-1.118a6.363 6.363 0 01-3.913 1.331c-2.874 0-6.028-2.582-6.467-8.238h10.38c0-4.897-2.143-8.797-7.825-8.797-5.683 0-9.649 4.14-9.649 10.301 0 5.15 3.82 9.316 10.048 9.316a9.955 9.955 0 007.453-2.662v-1.33l-.027.08zm-8.158-13.654c1.677 0 1.863 2.662 1.863 3.713 0 1.33-.186 1.876-1.863 1.876s-1.863-.479-1.863-1.876c-.027-1.065.16-3.713 1.863-3.713zM83.165 9.01h2.98v1.45h-2.98v13.47a1.33 1.33 0 001.17 1.57h.227a2.942 2.942 0 001.584-.506v1.331a8.837 8.837 0 01-5.59 1.65 4.751 4.751 0 01-5.004-4.458 3.268 3.268 0 010-.625V10.446H73.77l9.395-8.251V9.01zm25.126 16.156c.149.726.433 1.417.838 2.037h-8.331V13.894a2.17 2.17 0 00-2.05-2.25h-.132a2.502 2.502 0 00-2.516 2.29v13.308h-7.506V6.07l-2.422-1.744A74.662 74.662 0 0096.1 0v11.086a8.784 8.784 0 016.561-2.768c3.993 0 5.63 2.662 5.63 5.722v11.126zm35.933 2.037h-8.904V10.02h-1.796V8.57h1.796V6.508a5.02 5.02 0 010-.626 4.741 4.741 0 015.004-4.458 8.839 8.839 0 015.59 1.65v1.331a2.98 2.98 0 00-1.597-.506h-.213a1.33 1.33 0 00-1.171 1.557v3.101h2.981v1.451h-2.981v15.158c0 .333.426 1.012 1.291 2.037z"/></svg></svg>