<svg width="24" height="20" fill="none" xmlns="http://www.w3.org/2000/svg"><path fill-rule="evenodd" clip-rule="evenodd" d="M23.025 2.24c-.317 3.298-1.676 11.321-2.363 14.989-.294 1.562-.868 2.083-1.426 2.136-1.215.113-2.128-.8-3.306-1.57-1.834-1.2-2.868-1.947-4.649-3.125-2.06-1.358-.755-2.105.445-3.32.31-.317 5.646-5.17 5.744-5.608a.416.416 0 0 0-.09-.37.475.475 0 0 0-.438-.045c-.182.045-3.112 1.982-8.793 5.811a3.94 3.94 0 0 1-2.264.838 14.765 14.765 0 0 1-3.245-.755C1.334 10.8.3 10.572.376 9.855c.045-.377.558-.754 1.509-1.154 6.078-2.647 10.13-4.393 12.158-5.238C19.833 1.055 21.04.64 21.825.625c.287-.004.57.08.807.242.165.145.27.347.294.566.062.265.095.535.099.807Z" fill="#fff"/></svg>