<svg width="20" height="24" fill="none" xmlns="http://www.w3.org/2000/svg"><path d="M18.596 5.985a5.449 5.449 0 0 1-2.868-1.645 5.359 5.359 0 0 1-1.396-3.162V.68H10.43v15.479a3.283 3.283 0 0 1-3.275 3.268 3.284 3.284 0 0 1-2.612-1.298 3.245 3.245 0 0 1-.671-1.985 3.283 3.283 0 0 1 3.283-3.276c.336 0 .67.054.988.159V9.065a7.072 7.072 0 0 0-1.132-.068A7.17 7.17 0 0 0 2.038 21.17a7.162 7.162 0 0 0 5.124 2.151 7.162 7.162 0 0 0 7.17-7.162v-7.91a9.275 9.275 0 0 0 5.396 1.759V6.106a5.79 5.79 0 0 1-1.132-.12Z" fill="#fff"/></svg>