<svg width="13" height="14" viewBox="0 0 13 14" fill="none" xmlns="http://www.w3.org/2000/svg">
<path d="M6.5 13.715C4.77691 13.7124 3.12512 13.0267 1.90671 11.8083C0.688294 10.5899 0.00264482 8.93812 0 7.21503C0.00264482 5.49193 0.688294 3.84017 1.90671 2.62176C3.12512 1.40334 4.77691 0.717672 6.5 0.715027C8.22309 0.717672 9.87485 1.40334 11.0933 2.62176C12.3117 3.84017 12.9973 5.49193 13 7.21503C12.9973 8.93812 12.3117 10.5899 11.0933 11.8083C9.87485 13.0267 8.22309 13.7124 6.5 13.715ZM6.5 1.71503C5.04212 1.71767 3.64471 2.29799 2.61383 3.32887C1.58295 4.35974 1.00264 5.75715 1 7.21503C1.00264 8.67291 1.58295 10.0703 2.61383 11.1012C3.64471 12.1321 5.04212 12.7124 6.5 12.715C7.95788 12.7124 9.35528 12.1321 10.3862 11.1012C11.417 10.0703 11.9973 8.67291 12 7.21503C11.9973 5.75715 11.417 4.35974 10.3862 3.32887C9.35528 2.29799 7.95788 1.71767 6.5 1.71503ZM9.12 8.39503L7 6.95503V3.12503H6V7.45503L8.56 9.18503L9.12 8.39503Z" fill="black"/>
</svg>
